<svg xmlns="http://www.w3.org/2000/svg" width="244" height="256" viewBox="0 0 244 256" version="1.1"><path d="M 82.851 54.065 C 73.234 56.637, 72.859 57.593, 60.087 112.065 C 53.970 138.154, 48.916 161.775, 48.856 164.555 C 48.719 170.921, 50.929 175.299, 55.843 178.401 C 60.360 181.252, 151.385 202.968, 159.555 203.144 C 165.921 203.281, 170.299 201.071, 173.401 196.157 C 176.252 191.640, 197.968 100.615, 198.144 92.445 C 198.281 86.078, 196.071 81.701, 191.155 78.598 C 188.414 76.868, 174.802 73.248, 141.933 65.507 C 95.174 54.495, 87.094 52.930, 82.851 54.065 M 111.218 106.663 C 106.558 108.960, 104.439 112.448, 102.071 121.721 C 99.418 132.111, 99.402 138.297, 102.018 142.528 C 104.803 147.036, 107.509 148.577, 116.806 150.950 C 130.110 154.347, 137.540 153.264, 141.780 147.309 C 144.369 143.674, 148 129.745, 148 123.451 C 148 118.238, 145.477 113.198, 141.593 110.653 C 138.328 108.514, 124.104 104.995, 118.833 105.023 C 116.450 105.035, 113.023 105.773, 111.218 106.663 M 117.070 123.635 C 116.472 125.761, 115.710 129.152, 115.376 131.171 C 114.786 134.745, 114.872 134.871, 118.635 135.930 C 120.761 136.528, 124.152 137.290, 126.171 137.624 C 129.745 138.214, 129.871 138.128, 130.930 134.365 C 131.528 132.239, 132.290 128.848, 132.624 126.829 C 133.214 123.255, 133.128 123.129, 129.365 122.070 C 127.239 121.472, 123.848 120.710, 121.829 120.376 C 118.255 119.786, 118.129 119.872, 117.070 123.635" stroke="none" fill="#e40d15" fill-rule="evenodd"/><path d="M 76.266 40.178 C 68.931 42.638, 61.681 49.038, 58.341 56 C 55.611 61.689, 33 158.234, 33 164.202 C 33 176.604, 39.814 187.675, 51 193.446 C 56.450 196.258, 152.717 219.003, 159.133 218.994 C 171.494 218.979, 182.223 212.725, 187.716 202.334 C 190.138 197.753, 193.313 185.764, 202.505 146.500 C 215.363 91.580, 215.649 89.316, 211.094 78.710 C 208.617 72.942, 202.069 66.289, 195.968 63.341 C 189.941 60.428, 93.606 37.988, 87.367 38.043 C 84.690 38.067, 79.695 39.027, 76.266 40.178 M 82.851 54.065 C 73.234 56.637, 72.859 57.593, 60.087 112.065 C 53.970 138.154, 48.916 161.775, 48.856 164.555 C 48.719 170.921, 50.929 175.299, 55.843 178.401 C 60.360 181.252, 151.385 202.968, 159.555 203.144 C 165.921 203.281, 170.299 201.071, 173.401 196.157 C 176.252 191.640, 197.968 100.615, 198.144 92.445 C 198.281 86.078, 196.071 81.701, 191.155 78.598 C 188.414 76.868, 174.802 73.248, 141.933 65.507 C 95.174 54.495, 87.094 52.930, 82.851 54.065 M 111.218 106.663 C 106.558 108.960, 104.439 112.448, 102.071 121.721 C 99.418 132.111, 99.402 138.297, 102.018 142.528 C 104.803 147.036, 107.509 148.577, 116.806 150.950 C 130.110 154.347, 137.540 153.264, 141.780 147.309 C 144.369 143.674, 148 129.745, 148 123.451 C 148 118.238, 145.477 113.198, 141.593 110.653 C 138.328 108.514, 124.104 104.995, 118.833 105.023 C 116.450 105.035, 113.023 105.773, 111.218 106.663 M 117.070 123.635 C 116.472 125.761, 115.710 129.152, 115.376 131.171 C 114.786 134.745, 114.872 134.871, 118.635 135.930 C 120.761 136.528, 124.152 137.290, 126.171 137.624 C 129.745 138.214, 129.871 138.128, 130.930 134.365 C 131.528 132.239, 132.290 128.848, 132.624 126.829 C 133.214 123.255, 133.128 123.129, 129.365 122.070 C 127.239 121.472, 123.848 120.710, 121.829 120.376 C 118.255 119.786, 118.129 119.872, 117.070 123.635" stroke="none" fill="#fbf9f9" fill-rule="evenodd"/></svg>